Motion_kv05_j
version=1
nRows=10
nColumns=43
inDegrees=yes
endheader
time	pelvis_tilt	pelvis_list	pelvis_rotation	pelvis_tx	pelvis_ty	pelvis_tz	hip_flexion_r	hip_adduction_r	hip_rotation_r	knee_angle_r	ankle_angle_r	subtalar_angle_r	mtp_angle_r	hip_flexion_l	hip_adduction_l	hip_rotation_l	knee_angle_l	ankle_angle_l	subtalar_angle_l	mtp_angle_l	lumbar_extension	lumbar_bending	lumbar_rotation	neck_flexion	neck_lateral_bending	neck_rotation	arm_flex_r	arm_add_r	arm_rot_r	elbow_flex_r	pro_sup_r	wrist_flex_r	wrist_dev_r	hand_finger_flex_r	arm_flex_l	arm_add_l	arm_rot_l	elbow_flex_l	pro_sup_l	wrist_flex_l	wrist_dev_l	hand_finger_flex_l
      0.18000000	     -7.41030113	     57.34091979	    -83.73398851	      0.00734127	      1.24712908	      0.69389445	     49.97815977	     -2.56568902	    -11.02527334	    -44.92969209	     -9.03505472	     -9.87875845	    -11.49038357	     47.41691532	     -2.85043462	      3.88874263	    -44.20996742	      6.41498390	    -13.74886259	    -18.68897108	    -27.60445355	      1.04207878	      2.18840510	     48.54069359	     -0.61262156	      1.07712402	     34.25683792	    -45.21167465	      4.69256494	     90.60544789	    148.40780710	    -49.94334350	    -15.89113125	     70.32823752	     37.79396288	    -42.01300380	      9.50973829	     95.91445811	    160.42322793	    -51.07871430	     -4.27315791	     90.00021046
      0.18250000	     -7.52802031	     57.45687669	    -83.62572652	      0.00732380	      1.25223302	      0.69659319	     50.78347160	     -2.72230448	    -11.19843964	    -46.82579872	     -7.79763113	     -9.60983533	    -11.52110079	     48.17404734	     -2.94200649	      3.79976117	    -46.06191775	      7.63558309	    -12.90534443	    -18.41860550	    -27.94782882	      1.08602193	      2.08794015	     48.83357232	     -0.47204234	      1.16210548	     34.90983193	    -44.47925894	      4.87263489	     89.70840894	    148.82460667	    -50.77411297	    -16.35636018	     70.36020291	     37.89406517	    -41.63030144	      9.20262646	     95.36215917	    160.85099539	    -51.74715151	     -4.70450084	     90.00021046
      0.18500000	     -7.65144330	     57.50099467	    -83.58132336	      0.00729315	      1.25744731	      0.69937768	     51.53323175	     -2.80060277	    -11.30349408	    -48.71316467	     -6.72557413	     -9.72105987	    -11.58671467	     48.84547575	     -3.03108277	      3.78643169	    -47.88573124	      8.67326975	    -12.56532894	    -18.18082561	    -28.42403241	      1.12201635	      2.09248656	     49.31230382	     -0.32348845	      1.22218055	     35.52253675	    -43.93001814	      5.03380794	     89.00282320	    149.01453209	    -51.44215750	    -16.74402506	     70.47917477	     38.06203407	    -41.28985721	      8.96939363	     94.87810847	    161.07114840	    -52.31551042	     -5.00283530	     90.00021046
      0.18750000	     -7.73964593	     57.57336463	    -83.56887783	      0.00723927	      1.26259242	      0.70207116	     52.33631818	     -2.90138783	    -11.39086854	    -50.61607516	     -5.69471344	     -9.79538256	    -11.68083404	     49.58002363	     -3.10404757	      3.78240208	    -49.76921006	      9.67056913	    -12.13562504	    -17.93777454	    -28.85836502	      1.12255485	      2.10607287	     49.76058425	     -0.15339678	      1.25045311	     36.08137514	    -43.40290247	      5.15531812	     88.31741743	    149.20750134	    -52.11945939	    -17.19197820	     70.62496429	     38.29695959	    -40.96232896	      8.81383101	     94.35554215	    161.28210777	    -52.87874716	     -5.31437160	     90.00021046
      0.19000000	     -7.80086574	     57.66130184	    -83.56685754	      0.00722455	      1.26777502	      0.70467272	     53.16999302	     -3.01950640	    -11.44946229	    -52.51838423	     -4.62669279	     -9.95939238	    -11.76429835	     50.32566721	     -3.16916245	      3.71622598	    -51.60862389	     10.65024392	    -11.77961555	    -17.70750223	    -29.28286172	      1.10207845	      2.14473163	     50.21037184	     -0.01029642	      1.26700130	     36.60320358	    -42.89607780	      5.16961231	     87.62114892	    149.37406222	    -52.70229749	    -17.60200099	     70.74969721	     38.61580252	    -40.60425518	      8.72702391	     93.82492211	    161.46180363	    -53.38032092	     -5.59397009	     90.00021046
      0.19250000	     -7.83034739	     57.78286971	    -83.60356364	      0.00721357	      1.27286530	      0.70719045	     54.06117990	     -3.14386173	    -11.47320179	    -54.44070177	     -3.55281540	    -10.13208034	    -11.85696928	     51.12339072	     -3.22302503	      3.64915921	    -53.47996579	     11.61832513	    -11.39601539	    -17.47954436	    -29.66135690	      1.05813667	      2.19668332	     50.65403804	      0.13684398	      1.26746226	     37.08628911	    -42.41024570	      5.15668863	     86.95522555	    149.54795941	    -53.27525461	    -18.03847575	     70.85717800	     38.96520541	    -40.25674160	      8.69621400	     93.26919909	    161.63209289	    -53.90033163	     -5.87875551	     90.00021046
      0.19500000	     -7.82941700	     57.91157992	    -83.65427960	      0.00719007	      1.27792980	      0.70964846	     54.97445778	     -3.27889083	    -11.46750276	    -56.36806457	     -2.46764237	    -10.35707258	    -11.94266937	     51.93870879	     -3.26641740	      3.56198442	    -55.34374957	     12.55755756	    -11.06059168	    -17.26482671	    -30.03000015	      0.99271046	      2.24313700	     51.09645125	      0.26623249	      1.26597801	     37.55508063	    -41.95087437	      5.12306576	     86.30023585	    149.70820068	    -53.78374774	    -18.45260288	     70.93732544	     39.35670209	    -39.91246171	      8.70257787	     92.70907455	    161.77795089	    -54.40058420	     -6.14542959	     90.00021046
      0.19750000	     -7.79531364	     58.07024541	    -83.73986366	      0.00721949	      1.28292648	      0.71200461	     55.94038849	     -3.42068561	    -11.42483395	    -58.30403596	     -1.38281680	    -10.58179482	    -12.03568675	     52.79694706	     -3.28513646	      3.48119424	    -57.22542135	     13.47582074	    -10.70417748	    -17.05454607	    -30.35795228	      0.91906718	      2.28551676	     51.52573794	      0.39625964	      1.26208787	     38.02900549	    -41.49930927	      5.09104529	     85.66130200	    149.86622836	    -54.28950588	    -18.88166240	     70.99630217	     39.75497428	    -39.58764932	      8.73970439	     92.12226196	    161.90916401	    -54.92978776	     -6.41648724	     90.00021046
      0.20000000	     -7.72955007	     58.24036649	    -83.83063362	      0.00718771	      1.28789258	      0.71429791	     56.93377820	     -3.56579059	    -11.34828584	    -60.24240377	     -0.29311637	    -10.82927606	    -12.13059423	     53.67870531	     -3.28636208	      3.39690241	    -59.10671364	     14.36876032	    -10.37467276	    -16.85177823	    -30.67154974	      0.82207057	      2.29821011	     51.94640310	      0.50713184	      1.26600456	     38.51216795	    -41.06999571	      5.07837763	     85.01041015	    150.00558133	    -54.77229298	    -19.30525451	     71.03786872	     40.17817768	    -39.27744677	      8.78852097	     91.53676437	    162.01619573	    -55.47440249	     -6.68166641	     90.00021046
      0.20250000	     -7.63656051	     58.42645450	    -83.95069222	      0.00724526	      1.29277731	      0.71652958	     57.97147414	     -3.71733751	    -11.22913301	    -62.20375697	      0.76844040	    -11.06089488	    -12.23989144	     54.57832368	     -3.25684071	      3.33076588	    -60.98589679	     15.22053002	    -10.03557581	    -16.65367380	    -30.95271471	      0.72808698	      2.29733836	     52.36452532	      0.61669297	      1.27613264	     39.01047889	    -40.64041617	      5.10048854	     84.34601475	    150.11870084	    -55.26934633	    -19.74049082	     71.06812857	     40.59105351	    -38.99705927	      8.84595006	     90.91973780	    162.09809165	    -56.05904759	     -6.94908719	     90.00021046
